<svg id="Camping" enable-background="new 0 0 300 300" height="512" viewBox="0 0 300 300" width="512" xmlns="http://www.w3.org/2000/svg"><g><path d="m91.145 98.958c-13.806 0-25-11.193-25-25 0-11.166 7.37-20.51 17.473-23.719-.796-.061-1.556-.239-2.368-.239-17.259 0-31.25 13.991-31.25 31.25s13.991 31.25 31.25 31.25c14.865 0 27.25-10.402 30.415-24.308-4.515 6.495-12.009 10.766-20.52 10.766z" fill="#ff0080"/><g><path d="m179.395 246.851-29.395-51.435-29.395 51.434-10.852-6.201 34.821-60.931c2.222-3.894 8.63-3.894 10.852 0l34.821 60.931z" fill="#cac5ff"/></g><path d="m237.5 225v6.195l-31.196-17.826-50.878-89.034c-2.222-3.894-8.63-3.894-10.852 0l-50.878 89.034-31.196 17.826v-6.195h-12.5v25h12.5v-4.409l18.981-10.846-3.375 5.905c-1.105 1.935-1.099 4.309.018 6.238 1.123 1.929 3.18 3.113 5.408 3.113h132.935c2.228 0 4.285-1.184 5.408-3.113 1.117-1.929 1.123-4.303.018-6.238l-3.375-5.905 18.981 10.846v4.409h12.501v-25zm-143.195 12.5 55.695-97.467 55.695 97.467z" fill="#2f00b0"/><g fill="#ff0080"><path d="m187.524 102.813-3.862 2.135.737-4.523-3.125-3.203 4.319-.659 1.931-4.115 1.932 4.115 4.318.659-3.125 3.203.738 4.523z"/><path d="m216.467 156.458-3.862 2.136.737-4.523-3.125-3.203 4.319-.66 1.931-4.114 1.932 4.114 4.318.66-3.125 3.203.738 4.523z"/></g></g></svg>